<svg width="40" height="40" viewBox="0 0 40 40" fill="none" xmlns="http://www.w3.org/2000/svg">
<path fill-rule="evenodd" clip-rule="evenodd" d="M0 20C0 17.2396 0.520828 14.6419 1.5625 12.207C2.60417 9.77212 4.02994 7.64975 5.83984 5.83984C7.64975 4.02994 9.77212 2.60417 12.207 1.5625C14.6419 0.520828 17.2396 0 20 0C22.7604 0 25.3581 0.520828 27.793 1.5625C30.2279 2.60417 32.3503 4.02994 34.1602 5.83984C35.9701 7.64975 37.3958 9.77212 38.4375 12.207C39.4792 14.6419 40 17.2396 40 20C40 22.7604 39.4792 25.3581 38.4375 27.793C37.3958 30.2279 35.9701 32.3503 34.1602 34.1602C32.3503 35.9701 30.2279 37.3958 27.793 38.4375C25.3581 39.4792 22.7604 40 20 40C17.2396 40 14.6419 39.4792 12.207 38.4375C9.77212 37.3958 7.64975 35.9701 5.83984 34.1602C4.02994 32.3503 2.60417 30.2279 1.5625 27.793C0.520828 25.3581 0 22.7604 0 20ZM37.5391 20C37.5391 17.5781 37.0768 15.306 36.1523 13.1836C35.2279 11.0612 33.9714 9.21225 32.3828 7.63672C30.7943 6.06119 28.9388 4.8112 26.8164 3.88672C24.694 2.96223 22.4219 2.5 20 2.5C17.5781 2.5 15.306 2.96223 13.1836 3.88672C11.0612 4.8112 9.21225 6.06119 7.63672 7.63672C6.06119 9.21225 4.8112 11.0612 3.88672 13.1836C2.96223 15.306 2.5 17.5781 2.5 20C2.5 22.4219 2.96223 24.694 3.88672 26.8164C4.8112 28.9388 6.06119 30.7878 7.63672 32.3633C9.21225 33.9388 11.0612 35.1888 13.1836 36.1133C15.306 37.0378 17.5781 37.5 20 37.5C22.4219 37.5 24.694 37.0378 26.8164 36.1133C28.9388 35.1888 30.7943 33.9388 32.3828 32.3633C33.9714 30.7878 35.2279 28.9388 36.1523 26.8164C37.0768 24.694 37.5391 22.4219 37.5391 20ZM19.1016 10.3516C18.8672 10.5859 18.75 10.8854 18.75 11.25V25.3125L14.2188 20.7812C13.9844 20.5469 13.6914 20.4297 13.3398 20.4297C12.9883 20.4297 12.6953 20.5469 12.4609 20.7812C12.2005 21.0417 12.0703 21.3411 12.0703 21.6797C12.0703 22.0182 12.2005 22.3177 12.4609 22.5781L20.0391 29.9609L27.6172 22.5781C27.7214 22.4479 27.806 22.3047 27.8711 22.1484C27.9362 21.9922 27.9688 21.8359 27.9688 21.6797C27.9688 21.5234 27.9362 21.3672 27.8711 21.2109C27.806 21.0547 27.7214 20.9115 27.6172 20.7812C27.3568 20.5469 27.0573 20.4297 26.7188 20.4297C26.3802 20.4297 26.0807 20.5469 25.8203 20.7812L21.25 25.3906V11.25C21.25 10.8854 21.1263 10.5859 20.8789 10.3516C20.6315 10.1172 20.3385 10 20 10C19.6354 10 19.3359 10.1172 19.1016 10.3516Z" fill="#1E60A0"/>
</svg>
