<svg width="40" height="40" viewBox="0 0 40 40" fill="none" xmlns="http://www.w3.org/2000/svg">
<path fill-rule="evenodd" clip-rule="evenodd" d="M40 20C40 22.7604 39.4792 25.3581 38.4375 27.793C37.3958 30.2279 35.9701 32.3503 34.1602 34.1602C32.3503 35.9701 30.2279 37.3958 27.793 38.4375C25.3581 39.4792 22.7604 40 20 40C17.2396 40 14.6419 39.4792 12.207 38.4375C9.77212 37.3958 7.64975 35.9701 5.83984 34.1602C4.02994 32.3503 2.60417 30.2279 1.5625 27.793C0.520828 25.3581 0 22.7604 0 20C0 17.2396 0.520828 14.6419 1.5625 12.207C2.60417 9.77212 4.02994 7.64975 5.83984 5.83984C7.64975 4.02994 9.77212 2.60417 12.207 1.5625C14.6419 0.520828 17.2396 0 20 0C22.7604 0 25.3581 0.520828 27.793 1.5625C30.2279 2.60417 32.3503 4.02994 34.1602 5.83984C35.9701 7.64975 37.3958 9.77212 38.4375 12.207C39.4792 14.6419 40 17.2396 40 20ZM2.46094 20C2.46094 22.4219 2.92317 24.694 3.84766 26.8164C4.77214 28.9388 6.02864 30.7878 7.61719 32.3633C9.20574 33.9388 11.0612 35.1888 13.1836 36.1133C15.306 37.0378 17.5781 37.5 20 37.5C22.4219 37.5 24.694 37.0378 26.8164 36.1133C28.9388 35.1888 30.7878 33.9388 32.3633 32.3633C33.9388 30.7878 35.1888 28.9388 36.1133 26.8164C37.0378 24.694 37.5 22.4219 37.5 20C37.5 17.5781 37.0378 15.306 36.1133 13.1836C35.1888 11.0612 33.9388 9.21225 32.3633 7.63672C30.7878 6.06119 28.9388 4.8112 26.8164 3.88672C24.694 2.96223 22.4219 2.5 20 2.5C17.5781 2.5 15.306 2.96223 13.1836 3.88672C11.0612 4.8112 9.20574 6.06119 7.61719 7.63672C6.02864 9.21225 4.77214 11.0612 3.84766 13.1836C2.92317 15.306 2.46094 17.5781 2.46094 20ZM20.8984 29.6484C21.1328 29.4141 21.25 29.1146 21.25 28.75L21.25 14.6875L25.7812 19.2188C26.0156 19.4531 26.3086 19.5703 26.6602 19.5703C27.0117 19.5703 27.3047 19.4531 27.5391 19.2188C27.7995 18.9583 27.9297 18.6589 27.9297 18.3203C27.9297 17.9818 27.7995 17.6823 27.5391 17.4219L19.9609 10.0391L12.3828 17.4219C12.2786 17.5521 12.194 17.6953 12.1289 17.8516C12.0638 18.0078 12.0312 18.1641 12.0312 18.3203C12.0312 18.4766 12.0638 18.6328 12.1289 18.7891C12.194 18.9453 12.2786 19.0885 12.3828 19.2188C12.6432 19.4531 12.9427 19.5703 13.2812 19.5703C13.6198 19.5703 13.9193 19.4531 14.1797 19.2188L18.75 14.6094L18.75 28.75C18.75 29.1146 18.8737 29.4141 19.1211 29.6484C19.3685 29.8828 19.6615 30 20 30C20.3646 30 20.6641 29.8828 20.8984 29.6484Z" fill="#1E60A0"/>
</svg>
