<svg width="18" height="14" viewBox="0 0 18 14" fill="none" xmlns="http://www.w3.org/2000/svg">
<path fill-rule="evenodd" clip-rule="evenodd" d="M16.8399 0.5C16.5199 0.166665 16.1333 0 15.6799 0H2.31993C1.8666 0 1.47993 0.166665 1.15993 0.5C0.83993 0.833335 0.679932 1.22666 0.679932 1.68V11.68C0.679932 12.1333 0.83993 12.5267 1.15993 12.86C1.47993 13.1933 1.8666 13.36 2.31993 13.36H15.6799C16.1333 13.36 16.5199 13.1933 16.8399 12.86C17.1599 12.5267 17.3199 12.1333 17.3199 11.68V1.68C17.3199 1.22666 17.1599 0.833335 16.8399 0.5ZM15.6799 1.68V3.36L8.99993 7.5L2.31993 3.36V1.68L8.99993 5.86L15.6799 1.68Z" fill="#042D5F"/>
</svg>
