<svg width="20" height="29" viewBox="0 0 12 17" fill="none" xmlns="http://www.w3.org/2000/svg">
<path fill-rule="evenodd" clip-rule="evenodd" d="M8.76 0.78C7.86666 0.259997 6.88667 0 5.82 0C4.75333 0 3.77334 0.259997 2.88 0.78C2 1.3 1.3 2 0.78 2.88C0.259997 3.77334 0 4.75333 0 5.82C0 6.63334 0.199998 7.56666 0.6 8.62C0.946668 9.51334 1.42666 10.48 2.04 11.52C2.54667 12.3467 3.12666 13.2067 3.78 14.1C4.23334 14.7267 4.71333 15.34 5.22 15.94L5.82 16.64L6.42 15.94C6.92667 15.34 7.40666 14.7267 7.86 14.1C8.51334 13.2067 9.09333 12.3467 9.6 11.52C10.2133 10.48 10.6933 9.51334 11.04 8.62C11.44 7.56666 11.64 6.63334 11.64 5.82C11.64 4.75333 11.38 3.77334 10.86 2.88C10.34 2 9.64001 1.3 8.76 0.78ZM6.86 7.6C6.54 7.78667 6.19334 7.88 5.82 7.88C5.24666 7.88 4.76 7.68 4.36 7.28C3.96 6.88 3.76 6.39334 3.76 5.82C3.76 5.44666 3.85333 5.1 4.04 4.78C4.22667 4.46 4.47667 4.20667 4.79 4.02C5.10333 3.83333 5.44666 3.74 5.82 3.74C6.19334 3.74 6.54 3.83333 6.86 4.02C7.18 4.20667 7.43333 4.46 7.62 4.78C7.80667 5.1 7.9 5.44666 7.9 5.82C7.9 6.19334 7.80667 6.53666 7.62 6.85C7.43333 7.16333 7.18 7.41333 6.86 7.6Z" fill="#fafafa"/>
</svg>
