<?xml version="1.0" encoding="UTF-8"?>
<svg width="119px" height="110px" viewBox="0 0 119 110" version="1.1" xmlns="http://www.w3.org/2000/svg" xmlns:xlink="http://www.w3.org/1999/xlink">
    <!-- Generator: Sketch 53.2 (72643) - https://sketchapp.com -->
    <title>coworking</title>
    <desc>Created with Sketch.</desc>
    <g id="Symbols" stroke="none" stroke-width="1" fill="none" fill-rule="evenodd">
        <g id="card/about/active" transform="translate(-171.000000, -96.000000)" fill="#042D5F" fill-rule="nonzero">
            <g id="Group-5">
                <g id="Group-2" transform="translate(148.000000, 96.000000)">
                    <g id="coworking" transform="translate(23.000000, 0.000000)">
                        <path d="M51.1795582,65.4285714 C51.1795582,64.2451041 52.1366851,63.2857143 53.3173609,63.2857143 L66.1441775,63.2857143 C67.3248534,63.2857143 68.2819803,64.2451041 68.2819803,65.4285714 L68.2819803,74 L72.2307692,74 L70.9162878,64.7800893 C70.7178245,63.3880396 69.8507108,62.182141 68.5959701,61.5532143 L63.5021205,59 L55.9594179,59 L50.8655684,61.5532143 C49.6108277,62.182141 48.7437139,63.3880396 48.5452507,64.7800893 L47.2307692,74 L51.1795582,74 L51.1795582,65.4285714 Z" id="Path"></path>
                        <rect id="Rectangle" x="55.2307692" y="68" width="8" height="6"></rect>
                        <path d="M116.13986,64 C114.998485,64 113.779485,65.102881 113.516031,65.3975238 C113.376477,65.5541876 113.213969,65.6886841 113.034076,65.7964048 L102.579531,72.082119 C102.254444,72.2774618 101.882551,72.380743 101.503497,72.3809524 L95.2307692,72.3809524 L95.2307692,74.4761905 L103.101212,74.4761905 L111.022883,70.5067619 C111.671071,70.1819637 112.440876,70.2166658 113.057343,70.5984734 C113.673809,70.980281 114.049017,71.6547407 114.048951,72.3809524 L114.048951,80.7619048 C114.048631,81.4844415 113.677099,82.1559101 113.065701,82.5389286 L98.0231783,91.9604286 L106.915553,108 L107.189201,108 L103.65661,93.8416905 C103.407777,92.8440337 103.918246,91.8128825 104.861497,91.4078095 L118.230769,85.6665952 L118.230769,66.0952381 C118.229186,64.938728 117.293981,64.0015869 116.13986,64 L116.13986,64 Z" id="Path"></path>
                        <path d="M51.2307692,88.2306 L54.8581442,91.8153 C55.1925556,92.1452488 55.4058113,92.5761665 55.4640349,93.0396 L57.356613,108 L62.1046599,108 L63.997238,93.0396 C64.0556727,92.5761741 64.269003,92.1452945 64.6033942,91.8153 L68.2307692,88.2306 L68.2307692,87 L51.2307692,87 L51.2307692,88.2306 Z" id="Path"></path>
                        <path d="M5.42746241,84.6535476 C4.79784837,84.2748677 4.41261705,83.5929794 4.41258741,82.8571429 L4.41258741,72.3809524 C4.41252145,71.6547407 4.78772915,70.980281 5.40419579,70.5984734 C6.02066244,70.2166658 6.79046732,70.1819637 7.43865559,70.5067619 L15.360326,74.4761905 L23.2307692,74.4761905 L23.2307692,72.3809524 L16.958042,72.3809524 C16.5789874,72.380743 16.2070942,72.2774618 15.8820079,72.082119 L5.42746241,65.7964048 C5.24756915,65.6886841 5.08506149,65.5541876 4.94550787,65.3975238 C4.61984878,65.042381 3.41626923,64 2.32167832,64 C1.16755772,64.0015869 0.232352883,64.938728 0.230769231,66.0952381 L0.230769231,89.7279524 L11.346826,93.4407143 C12.0013106,93.6595579 12.5059247,94.1878537 12.6954624,94.8526429 L16.4444624,108 L20.4200647,108 L15.187826,90.5220476 L5.42746241,84.6535476 Z" id="Path"></path>
                        <path d="M91.2307692,15 L91.2307692,9 L82.4307692,9 C81.2164336,9.0015148 80.2324355,9.89605856 80.2307692,11 L80.2307692,17 L89.0307692,17 C90.2451048,16.9984852 91.229103,16.1039414 91.2307692,15 Z" id="Path"></path>
                        <path d="M68.3141026,17.248543 C69.4646958,17.248543 70.3974359,18.2138474 70.3974359,19.4046108 L70.3974359,24 L76.6474359,19.6878643 L76.6474359,10.7803394 C76.6513108,7.20971154 79.4472625,4.31614594 82.8974359,4.31213574 L91.2307692,4.31213574 L91.2307692,2.15606787 C91.2291913,0.965981535 90.2973749,0.00163300295 89.1474359,0 L68.3141026,0 C67.1641636,0.00163300295 66.2323471,0.965981535 66.2307692,2.15606787 L66.2307692,15.0924751 C66.2323471,16.2825614 67.1641636,17.24691 68.3141026,17.248543 L68.3141026,17.248543 Z" id="Path"></path>
                        <path d="M80.8614984,20.9364072 L80.2307692,21.3716634 L80.2307692,23.0924751 C80.2323471,24.2825614 81.1641636,25.24691 82.3141026,25.248543 L90.6474359,25.248543 C91.0586839,25.2486876 91.4607032,25.3747136 91.8029046,25.6107624 L101.064103,32 L101.064103,27.4046108 C101.064103,26.2138474 101.996843,25.248543 103.147436,25.248543 C104.297375,25.24691 105.229191,24.2825614 105.230769,23.0924751 L105.230769,10.1560679 C105.229191,8.96598153 104.297375,8.001633 103.147436,8 L94.8141026,8 L94.8141026,14.4682036 C94.8102277,18.0388314 92.0142759,20.932397 88.5641026,20.9364072 L80.8614984,20.9364072 Z" id="Path"></path>
                        <path d="M6.37362637,23.248543 L8.51648352,23.248543 C9.69995084,23.248543 10.6593407,24.2138474 10.6593407,25.4046108 L10.6593407,30 L20.1848764,23.6107624 C20.5369723,23.374751 20.9505514,23.2487309 21.3736264,23.248543 L32.0879121,23.248543 C33.2707065,23.24691 34.2291462,22.2825614 34.2307692,21.0924751 L34.2307692,8.15606787 C34.2291462,6.96598153 33.2707065,6.001633 32.0879121,6 L6.37362637,6 C5.19083197,6.001633 4.23239223,6.96598153 4.23076923,8.15606787 L4.23076923,21.0924751 C4.23239223,22.2825614 5.19083197,23.24691 6.37362637,23.248543 Z M25.6593407,12.4682036 L29.9450549,12.4682036 L29.9450549,16.7803394 L25.6593407,16.7803394 L25.6593407,12.4682036 Z M17.0879121,12.4682036 L21.3736264,12.4682036 L21.3736264,16.7803394 L17.0879121,16.7803394 L17.0879121,12.4682036 Z M8.51648352,12.4682036 L12.8021978,12.4682036 L12.8021978,16.7803394 L8.51648352,16.7803394 L8.51648352,12.4682036 Z" id="Shape"></path>
                        <circle id="Oval" cx="59.2307692" cy="51" r="4"></circle>
                        <circle id="Oval" cx="114.230769" cy="55" r="4"></circle>
                        <circle id="Oval" cx="4.23076923" cy="55" r="4"></circle>
                        <path d="M95.1196581,75.8187773 L86.3524776,75.8187773 L84.5353387,64.7852023 C84.4112211,64.0323301 83.8996387,63.4036576 83.1932994,63.1359994 C82.4869602,62.8683412 81.6931739,63.0023611 81.1109522,63.4875751 C80.5287305,63.972789 80.2465267,64.7354815 80.3706442,65.4883536 L82.4236998,77.9536015 L36.0378387,77.9536015 L38.0908942,65.4883536 C38.2827633,64.3245142 37.5060053,63.2236301 36.3559567,63.0294602 C35.2059081,62.8352903 34.1180689,63.6213628 33.9261998,64.7852023 L32.1090609,75.8187773 L23.3418803,75.8187773 C22.1759459,75.8187773 21.2307692,76.775288 21.2307692,77.9552038 C21.2307692,79.1351196 22.1759459,80.0916304 23.3418803,80.0916304 L25.4529915,80.0916304 L25.4529915,110 L29.6752137,110 L29.6752137,82.2264546 L88.7863248,82.2264546 L88.7863248,110 L93.008547,110 L93.008547,80.0916304 L95.1196581,80.0916304 C96.2855926,80.0916304 97.2307692,79.1351196 97.2307692,77.9552038 C97.2307692,76.775288 96.2855926,75.8187773 95.1196581,75.8187773 Z" id="Path"></path>
                        <rect id="Rectangle" x="114.230769" y="91" width="4" height="19"></rect>
                        <rect id="Rectangle" x="0.230769231" y="95" width="4" height="15"></rect>
                    </g>
                </g>
            </g>
        </g>
    </g>
</svg>