<svg width="18" height="20" viewBox="0 0 18 20" fill="none" xmlns="http://www.w3.org/2000/svg">
<path fill-rule="evenodd" clip-rule="evenodd" d="M16.3728 12.8683C16.7969 11.7076 17.1429 10.5246 17.1429 9.27456C17.1429 7.20983 15.904 5.7701 13.7947 5.79242C13.2366 5.35715 12.5223 5.12277 11.8081 5.12277C11.6518 5.12277 11.4844 5.13393 11.3281 5.15626C10.9152 4.92188 10.4688 4.77679 10 4.74331V2.85715C10 1.29464 8.69421 0 7.1317 0C5.59152 0 4.28572 1.31697 4.28572 2.85715V7.03126C3.82813 6.86385 3.34822 6.78572 2.85715 6.78572C0.970983 6.78572 0 8.22546 0 10C0 11.1465 1.12152 11.6961 2.11266 12.1818C2.41445 12.3297 2.70416 12.4717 2.94643 12.6228C3.47099 12.9576 3.92858 13.3371 4.38617 13.7389C4.42568 13.7736 4.47201 13.8133 4.52322 13.8572C4.94938 14.2228 5.71429 14.8789 5.71429 15.3572V18.5715C5.71429 19.3639 6.35045 20 7.14287 20H14.2857C15.0781 20 15.7143 19.3639 15.7143 18.5715V15.3572C15.7143 14.689 16.0872 13.6581 16.335 12.973C16.3479 12.9371 16.3606 12.9022 16.3728 12.8683ZM15.7143 9.33037C15.7143 8.06921 15.2009 7.22099 13.8505 7.22099C13.6384 7.22099 13.4264 7.24331 13.2255 7.27679C12.9688 6.80804 12.3326 6.55135 11.8192 6.55135C11.5514 6.55135 11.2835 6.61831 11.0491 6.75224C10.692 6.37278 10.2455 6.16072 9.72099 6.16072C9.36385 6.16072 8.8393 6.31697 8.57144 6.55135V2.85715C8.57144 2.08706 7.91296 1.42857 7.14287 1.42857C6.38394 1.42857 5.71429 2.10938 5.71429 2.85715V9.28572C5.42439 9.28572 5.13069 9.10359 4.78549 8.8895C4.29343 8.58435 3.69671 8.2143 2.85715 8.2143C1.78572 8.2143 1.42857 9.05135 1.42857 10C1.42857 10.2829 2.4895 10.7761 2.88097 10.9582C2.92195 10.9772 2.95559 10.9928 2.97991 11.0045C3.22545 11.1384 3.47099 11.2723 3.70536 11.4174C4.29688 11.7857 4.81027 12.2098 5.32367 12.6674C5.37604 12.7133 5.4292 12.7596 5.48283 12.8062L5.48292 12.8063C6.26346 13.4853 7.14287 14.2502 7.14287 15.3572V15.7143H14.2857V15.3572C14.2857 14.4058 14.6247 13.4649 14.9724 12.4999C15.3385 11.4838 15.7143 10.4408 15.7143 9.33037ZM14.2857 17.8572C14.2857 17.4665 13.9621 17.1429 13.5714 17.1429C13.1808 17.1429 12.8572 17.4665 12.8572 17.8572C12.8572 18.2478 13.1808 18.5715 13.5714 18.5715C13.9621 18.5715 14.2857 18.2478 14.2857 17.8572Z" fill="black"/>
</svg>
