<svg width="27" height="24" viewBox="0 0 15 15" fill="none" xmlns="http://www.w3.org/2000/svg">
<path fill-rule="evenodd" clip-rule="evenodd" d="M14.76 10.66C14.6 10.5 14.4067 10.42 14.18 10.42C13.0867 10.42 12.1 10.2667 11.22 9.96C11.0733 9.92 10.92 9.91333 10.76 9.94C10.6 9.96667 10.4667 10.04 10.36 10.16L8.52 12C7.33333 11.3867 6.26667 10.6067 5.32 9.66C4.37333 8.71333 3.6 7.65334 3 6.48L4.84 4.64C4.96 4.53333 5.03333 4.4 5.06 4.24C5.08667 4.08 5.08 3.92667 5.04 3.78C4.73333 2.9 4.58 1.91334 4.58 0.82C4.58 0.593332 4.5 0.400001 4.34 0.24C4.18 0.0799992 3.98667 0 3.76 0H0.82C0.593332 0 0.400001 0.0799992 0.24 0.24C0.0799992 0.400001 0 0.593332 0 0.82C0 2.74001 0.37333 4.57999 1.12 6.34C1.84 8.03334 2.85333 9.53333 4.16 10.84C5.46667 12.1467 6.96666 13.16 8.66 13.88C10.42 14.6267 12.26 15 14.18 15C14.4067 15 14.6 14.92 14.76 14.76C14.92 14.6 15 14.4067 15 14.18V11.24C15 11.0133 14.92 10.82 14.76 10.66ZM13.32 7.5C13.32 6.43333 13.06 5.45334 12.54 4.56C12.02 3.68 11.32 2.98 10.44 2.46C9.54666 1.94 8.56667 1.68 7.5 1.68V0C8.86001 0 10.12 0.339997 11.28 1.02C12.4133 1.68667 13.3133 2.58666 13.98 3.72C14.66 4.88001 15 6.13999 15 7.5H13.32ZM10 7.5C10 7.06 9.88667 6.64667 9.66 6.26C9.43333 5.87333 9.12667 5.56667 8.74 5.34C8.35333 5.11333 7.94 5 7.5 5V3.32C8.26 3.32 8.96 3.50666 9.6 3.88C10.24 4.25333 10.7467 4.76 11.12 5.4C11.4933 6.04 11.68 6.74 11.68 7.5H10Z" fill="#fafafa"/>
</svg>
