<svg width="40" height="21" viewBox="0 0 40 21" fill="none" xmlns="http://www.w3.org/2000/svg">
<path d="M0 1.27624C0 1.12155 0.032228 0.960406 0.0966851 0.792818C0.161142 0.625229 0.257826 0.47698 0.38674 0.348066C0.644569 0.116021 0.953958 0 1.31492 0C1.67588 0 1.98527 0.116021 2.24309 0.348066L19.7238 17.8287L36.9337 0.618785C37.1915 0.360956 37.5009 0.232044 37.8619 0.232044C38.2228 0.232044 38.5322 0.360956 38.7901 0.618785C39.0479 0.876613 39.1768 1.186 39.1768 1.54696C39.1768 1.90792 39.0479 2.21731 38.7901 2.47514L20.6519 20.6133C20.3941 20.8711 20.0847 21 19.7238 21C19.3628 21 19.0534 20.8711 18.7956 20.6133L0.38674 2.24309C0.257826 2.11418 0.161142 1.96593 0.0966851 1.79834C0.032228 1.63075 0 1.45672 0 1.27624Z" fill="#1E1E1E"/>
</svg>
