<?xml version="1.0" encoding="UTF-8"?>
<svg width="40px" height="40px" viewBox="0 0 40 40" version="1.1" xmlns="http://www.w3.org/2000/svg" xmlns:xlink="http://www.w3.org/1999/xlink">
    <!-- Generator: Sketch 53.2 (72643) - https://sketchapp.com -->
    <title></title>
    <desc>Created with Sketch.</desc>
    <g id="Symbols" stroke="none" stroke-width="1" fill="none" fill-rule="evenodd">
        <g id="icon/arrow/circle/down/blue" fill="#1E60A0" fill-rule="nonzero">
            <path d="M40,20 C40,22.7604305 39.4791719,25.3580607 38.4375,27.7929688 C37.3958281,30.2278768 35.9700611,32.3502514 34.1601562,34.1601562 C32.3502514,35.9700611 30.2278768,37.3958281 27.7929688,38.4375 C25.3580607,39.4791719 22.7604305,40 20,40 C17.2395695,40 14.6419393,39.4791719 12.2070312,38.4375 C9.77212324,37.3958281 7.64974863,35.9700611 5.83984375,34.1601562 C4.02993887,32.3502514 2.60417188,30.2278768 1.5625,27.7929688 C0.520828125,25.3580607 0,22.7604305 0,20 C0,17.2395695 0.520828125,14.6419393 1.5625,12.2070312 C2.60417188,9.77212324 4.02993887,7.64974863 5.83984375,5.83984375 C7.64974863,4.02993887 9.77212324,2.60417188 12.2070312,1.5625 C14.6419393,0.520828125 17.2395695,0 20,0 C22.7604305,0 25.3580607,0.520828125 27.7929688,1.5625 C30.2278768,2.60417188 32.3502514,4.02993887 34.1601562,5.83984375 C35.9700611,7.64974863 37.3958281,9.77212324 38.4375,12.2070312 C39.4791719,14.6419393 40,17.2395695 40,20 Z M2.4609375,20 C2.4609375,22.4218871 2.92317246,24.6939998 3.84765625,26.8164062 C4.77214004,28.9388127 6.02863789,30.7877525 7.6171875,32.3632812 C9.20573711,33.93881 11.0611873,35.1887975 13.1835938,36.1132812 C15.3060002,37.037765 17.5781129,37.5 20,37.5 C22.4218871,37.5 24.6939998,37.037765 26.8164063,36.1132812 C28.9388127,35.1887975 30.7877525,33.93881 32.3632812,32.3632812 C33.93881,30.7877525 35.1887975,28.9388127 36.1132812,26.8164062 C37.037765,24.6939998 37.5,22.4218871 37.5,20 C37.5,17.5781129 37.037765,15.3060002 36.1132812,13.1835938 C35.1887975,11.0611873 33.93881,9.21224746 32.3632812,7.63671875 C30.7877525,6.06119004 28.9388127,4.81120254 26.8164063,3.88671875 C24.6939998,2.96223496 22.4218871,2.5 20,2.5 C17.5781129,2.5 15.3060002,2.96223496 13.1835938,3.88671875 C11.0611873,4.81120254 9.20573711,6.06119004 7.6171875,7.63671875 C6.02863789,9.21224746 4.77214004,11.0611873 3.84765625,13.1835938 C2.92317246,15.3060002 2.4609375,17.5781129 2.4609375,20 Z M21.25,28.75 C21.25,29.1145852 21.1328137,29.4140613 20.8984375,29.6484375 C20.6640613,29.8828137 20.3645852,30 20,30 C19.6614566,30 19.3684908,29.8828137 19.1210938,29.6484375 C18.8736967,29.4140613 18.75,29.1145852 18.75,28.75 L18.75,14.609375 L14.1796875,19.21875 C13.9192695,19.4531262 13.6197934,19.5703125 13.28125,19.5703125 C12.9427066,19.5703125 12.6432305,19.4531262 12.3828125,19.21875 C12.2786453,19.088541 12.1940107,18.9453133 12.1289062,18.7890625 C12.0638018,18.6328117 12.03125,18.4765633 12.03125,18.3203125 C12.03125,18.1640617 12.0638018,18.0078133 12.1289062,17.8515625 C12.1940107,17.6953117 12.2786453,17.552084 12.3828125,17.421875 L19.9609375,10.0390625 L27.5390625,17.421875 C27.7994805,17.682293 27.9296875,17.9817691 27.9296875,18.3203125 C27.9296875,18.6588559 27.7994805,18.958332 27.5390625,19.21875 C27.3046863,19.4531262 27.0117205,19.5703125 26.6601562,19.5703125 C26.308592,19.5703125 26.0156262,19.4531262 25.78125,19.21875 L21.25,14.6875 L21.25,28.75 Z" id="" transform="translate(20.000000, 20.000000) rotate(-180.000000) translate(-20.000000, -20.000000) "></path>
        </g>
    </g>
</svg>