<?xml version="1.0" encoding="UTF-8"?>
<svg width="18px" height="17px" viewBox="0 0 18 17" version="1.1" xmlns="http://www.w3.org/2000/svg" xmlns:xlink="http://www.w3.org/1999/xlink">
    <!-- Generator: Sketch 53.2 (72643) - https://sketchapp.com -->
    <title></title>
    <desc>Created with Sketch.</desc>
    <g id="Symbols" stroke="none" stroke-width="1" fill="none" fill-rule="evenodd">
        <g id="icon/linkedin/black" transform="translate(-6.000000, -7.000000)" fill="#1E1E1E" fill-rule="nonzero">
            <g id="Group-9">
                <path d="M9.89509393,12.3236671 L9.89509393,23.3839481 L6.21205382,23.3839481 L6.21205382,12.3236671 L9.89509393,12.3236671 Z M10.1294692,8.90848442 C10.1406299,9.96875354 9.33705755,10.8169688 8.05357388,10.8169688 L8.03125242,10.8169688 C6.79241166,10.8169688 6,9.96875354 6,8.90848442 C6,7.82589384 6.82589384,7 8.07589533,7 C9.33705755,7 10.1183085,7.82589384 10.1294692,8.90848442 Z M15.5982257,13.8957132 C16.0827352,13.1383062 16.9567698,12.0669703 18.9129618,12.0669703 C21.3348397,12.0669703 23.1428776,13.6517936 23.1428776,17.0446548 L23.1428776,23.3839481 L19.4709982,23.3839481 L19.4709982,17.4687625 C19.4709982,15.9843857 18.9352833,14.9687595 17.6071567,14.9687595 C16.5915305,14.9687595 15.9888512,15.6495639 15.7209937,16.3080468 C15.6317079,16.5535828 15.5982257,16.8772439 15.5982257,17.2120657 L15.5982257,23.3839481 L11.9263464,23.3839481 C11.9709893,13.3616147 11.9263464,12.3236671 11.9263464,12.3236671 L15.5982257,12.3236671 L15.5982257,13.8957132 L15.5982257,13.8957132 Z" id=""></path>
            </g>
        </g>
    </g>
</svg>