<?xml version="1.0" encoding="UTF-8"?>
<svg width="18px" height="17px" viewBox="0 0 18 17" version="1.1" xmlns="http://www.w3.org/2000/svg" xmlns:xlink="http://www.w3.org/1999/xlink">
    <!-- Generator: Sketch 53.2 (72643) - https://sketchapp.com -->
    <title></title>
    <desc>Created with Sketch.</desc>
    <g id="Page-1" stroke="none" stroke-width="1" fill="none" fill-rule="evenodd">
        <path d="M3.89509393,5.32366706 L3.89509393,16.3839481 L0.212053824,16.3839481 L0.212053824,5.32366706 L3.89509393,5.32366706 Z M4.12946921,1.90848442 C4.14062994,2.96875354 3.33705755,3.81696884 2.05357388,3.81696884 L2.03125242,3.81696884 C0.792411659,3.81696884 0,2.96875354 0,1.90848442 C0,0.825893842 0.825893842,0 2.07589533,0 C3.33705755,0 4.11830848,0.825893842 4.12946921,1.90848442 Z M9.59822573,6.89571324 C10.0827352,6.13830622 10.9567698,5.06697033 12.9129618,5.06697033 C15.3348397,5.06697033 17.1428776,6.65179364 17.1428776,10.0446548 L17.1428776,16.3839481 L13.4709982,16.3839481 L13.4709982,10.4687625 C13.4709982,8.98438571 12.9352833,7.9687595 11.6071567,7.9687595 C10.5915305,7.9687595 9.98885119,8.64956388 9.72099373,9.30804681 C9.63170791,9.55358282 9.59822573,9.87724392 9.59822573,10.2120657 L9.59822573,16.3839481 L5.92634635,16.3839481 C5.97098926,6.36161473 5.92634635,5.32366706 5.92634635,5.32366706 L9.59822573,5.32366706 L9.59822573,6.89571324 L9.59822573,6.89571324 Z" id="" fill="#042D5F" fill-rule="nonzero"></path>
    </g>
</svg>