<?xml version="1.0" encoding="UTF-8"?>
<svg width="101px" height="109px" viewBox="0 0 101 109" version="1.1" xmlns="http://www.w3.org/2000/svg" xmlns:xlink="http://www.w3.org/1999/xlink">
    <!-- Generator: Sketch 53.2 (72643) - https://sketchapp.com -->
    <title>process</title>
    <desc>Created with Sketch.</desc>
    <g id="Symbols" stroke="none" stroke-width="1" fill="none" fill-rule="evenodd">
        <g id="card/about/passive" transform="translate(-180.000000, -96.000000)" fill="#042D5F" fill-rule="nonzero">
            <g id="Group-2">
                <g id="process" transform="translate(180.000000, 96.000000)">
                    <path d="M35.9882101,93.9606621 L30.3538047,93.9606621 L35.9882101,86.4409932 L35.9882101,93.9606621 Z M84.8197231,86.4409932 L90.4541284,93.9606621 L84.8197231,93.9606621 L84.8197231,86.4409932 Z M81.0634529,109 L39.7444803,109 L39.7444803,88.7652758 L43.6988938,96.6816073 C44.0171415,97.3184195 44.6675188,97.7206059 45.3788857,97.7204966 L75.4290475,97.7204966 C76.1404144,97.7206059 76.7907916,97.3184195 77.1090394,96.6816073 L81.0634529,88.7652758 L81.0634529,109 Z M79.9025306,82.6811587 L74.2681252,93.9606621 L46.5398079,93.9606621 L40.9054026,82.6811587 L79.9025306,82.6811587 Z M51.013291,71.4016553 L51.013291,67.6418208 L69.7946422,67.6418208 L69.7946422,71.4016553 L51.013291,71.4016553 Z M69.6040114,75.1690094 C69.3197641,76.5336222 68.7311859,77.8163241 67.8822311,78.9213242 L52.9257021,78.9213242 C52.0767473,77.8163241 51.488169,76.5336222 51.2039217,75.1690094 L69.6040114,75.1690094 Z M37.8919348,36.5035766 C38.1941111,30.0753271 41.2241016,24.0820933 46.2198214,20.0312569 C51.2155411,15.9804206 57.7015803,14.2574733 64.0466096,15.2957603 C74.2354926,16.9185989 82.1584056,25.5718579 82.8847744,35.8719245 C83.452785,43.178992 80.4116765,50.3016574 74.7430587,54.9408649 C71.9185782,57.2707874 70.1761384,60.4788661 69.8495776,63.8815163 L62.2821017,63.8815163 L62.2821017,46.1017291 L72.5127732,40.9815395 C73.1490729,40.6630554 73.5509771,40.0120477 73.5509124,39.2999535 L73.5509124,33.6602018 C73.5509124,32.6219522 72.7100427,31.7802846 71.6727773,31.7802846 L47.2570208,31.7802846 C46.2197554,31.7802846 45.3788857,32.6219522 45.3788857,33.6602018 L45.3788857,39.2999535 C45.3788964,39.9284586 45.6926941,40.5153815 46.2151253,40.8640447 L51.8495307,44.6238792 L53.9333216,41.4956969 L49.1351559,38.2939628 L49.1351559,35.5401191 L69.7946422,35.5401191 L69.7946422,38.1379297 L59.5639707,43.2581193 C58.927671,43.5766034 58.5257667,44.2276111 58.5258315,44.9397052 L58.5258315,63.8819863 L50.9583555,63.8819863 C50.6336729,60.4793361 48.8949894,57.2738422 46.0777867,54.9507345 C43.5699767,52.8797909 41.5391714,50.2905783 40.1245679,47.3605687 L42.9504569,44.5319982 C43.5849661,43.8947239 43.6794198,42.8967893 43.1757611,42.1515838 C42.6721025,41.4063784 41.7115469,41.122842 40.8845083,41.4752528 L38.4396459,42.5237766 C37.9887642,40.5506162 37.8045488,38.5258011 37.8919348,36.5035766 L37.8919348,36.5035766 Z M7.81618333,48.8426484 L17.0509737,48.8426484 L28.1676554,50.6969518 C28.5209899,50.7559479 28.8838167,50.7122336 29.2130724,50.5709973 L33.3984965,48.7766163 L29.4680292,52.7098732 L16.940868,54.5016693 C16.0158116,54.63414 15.3287662,55.4271901 15.3287238,56.3625524 L15.3287238,60.1223868 L4.0599131,60.1223868 L4.0599131,52.6027179 C4.05985083,51.6055071 4.4555721,50.6491181 5.16001617,49.9439615 C5.86446023,49.238805 6.81991785,48.8426484 7.81618333,48.8426484 Z M3.92046156,63.8819863 L15.4681753,63.8819863 L18.9345084,109 L16.6748771,109 L11.5569589,69.2813436 C11.4359252,68.3465197 10.6423971,67.6456598 9.70065715,67.6418208 L9.69431845,67.6418208 C8.75517228,67.6421259 7.96034648,68.3361767 7.83261701,69.2674792 L2.42030114,109 L0.45412844,109 L3.92046156,63.8819863 Z" id="Shape"></path>
                    <path d="M10.9541284,38 C12.8871251,38 14.4541284,39.5670034 14.4541284,41.5 C14.4541284,43.4329966 12.8871251,45 10.9541284,45 C9.02113182,45 7.45412844,43.4329966 7.45412844,41.5 C7.45641867,39.5679528 9.02208126,38.0022902 10.9541284,38 Z" id="Path"></path>
                    <polygon id="Path" transform="translate(61.197229, 3.996565) rotate(-89.828113) translate(-61.197229, -3.996565) " points="57.4359601 2.11593088 64.958498 2.11593088 64.958498 5.87719983 57.4359601 5.87719983"></polygon>
                    <polygon id="Path" transform="translate(86.425678, 14.454837) rotate(-44.837919) translate(-86.425678, -14.454837) " points="82.6650963 12.5740173 90.1862594 12.5740173 90.1862594 16.3356566 82.6650963 16.3356566"></polygon>
                    <polygon id="Path" transform="translate(96.906520, 39.736957) rotate(-89.828113) translate(-96.906520, -39.736957) " points="95.0258853 35.975688 98.7871543 35.975688 98.7871543 43.4982259 95.0258853 43.4982259"></polygon>
                    <polygon id="Path" transform="translate(86.418571, 64.993523) rotate(-44.837919) translate(-86.418571, -64.993523) " points="84.5384561 61.2325885 88.2986851 61.2325885 88.2986851 68.7544568 84.5384561 68.7544568"></polygon>
                    <polygon id="Path" transform="translate(35.897093, 64.968383) rotate(-44.837919) translate(-35.897093, -64.968383) " points="32.1363937 63.0875635 39.6577919 63.0875635 39.6577919 66.8492028 32.1363937 66.8492028"></polygon>
                    <polygon id="Path" transform="translate(25.450959, 39.719727) rotate(-89.828113) translate(-25.450959, -39.719727) " points="23.5703246 35.9584582 27.3315936 35.9584582 27.3315936 43.4809961 23.5703246 43.4809961"></polygon>
                    <polygon id="Path" transform="translate(35.916576, 14.459635) rotate(-44.837919) translate(-35.916576, -14.459635) " points="34.0364614 10.6987012 37.7966903 10.6987012 37.7966903 18.2205694 34.0364614 18.2205694"></polygon>
                </g>
            </g>
        </g>
    </g>
</svg>